# xmcd
#
# Track frame offsets: 
#        150
#        16258
#        35957
#        53724
#        73314
#        96946
#        117860
#        136740
#        152579
#        169861
#
# Disc length: 2514 seconds
#
# Revision: 1
# Processed by: cddbd v1.4PL0 Copyright (c) Steve Scherf et al.
# Submitted via: ExactAudioCopy v0.90b4
#
DISCID=8509d00a
DTITLE=阿杜 - 天黑
DYEAR=2002
DGENRE=Pop
TTITLE0=他一定很爱你
TTITLE1=天黑
TTITLE2=天天看到你
TTITLE3=一个人住
TTITLE4=ANDY
TTITLE5=撕夜
TTITLE6=无法阻挡
TTITLE7=你很好
TTITLE8=离别
TTITLE9=RIGHT HERE WAITING
EXTD=
EXTT0=
EXTT1=
EXTT2=
EXTT3=
EXTT4=
EXTT5=
EXTT6=
EXTT7=
EXTT8=
EXTT9=
PLAYORDER=
